<?xml version="1.0" encoding="UTF-8" standalone="no"?>
<!DOCTYPE svg PUBLIC "-//W3C//DTD SVG 1.1//EN" "http://www.w3.org/Graphics/SVG/1.1/DTD/svg11.dtd">
<svg width="100%" height="100%" viewBox="0 0 1772 1772" version="1.1" xmlns="http://www.w3.org/2000/svg" xmlns:xlink="http://www.w3.org/1999/xlink" xml:space="preserve" xmlns:serif="http://www.serif.com/" style="fill-rule:evenodd;clip-rule:evenodd;stroke-linecap:round;stroke-linejoin:round;stroke-miterlimit:1.5;">
    <g transform="matrix(1,0,0,1,-6052.38,-2.84217e-13)">
        <g id="Rectangle-1" serif:id="Rectangle 1" transform="matrix(1,0,0,1,6052.38,2.84217e-13)">
            <rect x="0" y="0" width="1771.65" height="1771.65" style="fill:none;"/>
            <g transform="matrix(1.45639,0,0,1.45639,-404.286,-523.644)">
                <g id="Shape">
                    <g id="Shape1" serif:id="Shape">
                        <g>
                            <g id="Shape2" serif:id="Shape" transform="matrix(1,0,0,-1,79.1475,1935.56)">
                                <g transform="matrix(0.665105,0,0,-0.665105,-3728.81,1574.36)">
                                    <path d="M6356,233C6262.11,302.545 6190.75,385.813 6141,482" style="fill:none;stroke:black;stroke-width:21.51px;"/>
                                </g>
                                <g transform="matrix(0.665105,0,0,-0.665105,-3728.81,1574.36)">
                                    <path d="M6223.48,357.5C6205.48,535.769 6205.48,669.137 6205.48,912" style="fill:none;stroke:black;stroke-width:21.51px;"/>
                                </g>
                                <g transform="matrix(0.782042,3.38964e-32,-9.24446e-33,0.80072,-4515.74,278.361)">
                                    <path d="M6229,861L6229,1316.66L6329.18,1425L6805.79,1425" style="fill:none;stroke:black;stroke-width:18.07px;"/>
                                </g>
                            </g>
                            <g id="Shape3" serif:id="Shape" transform="matrix(-1,0,0,-1,1692.51,1935.56)">
                                <g transform="matrix(0.665105,0,0,-0.665105,-3728.81,1574.36)">
                                    <path d="M6356,233C6262.11,302.545 6190.75,385.813 6141,482" style="fill:none;stroke:black;stroke-width:21.51px;"/>
                                </g>
                                <g transform="matrix(0.665105,0,0,-0.665105,-3728.81,1574.36)">
                                    <path d="M6223.48,357.5C6205.48,535.769 6205.48,669.137 6205.48,912" style="fill:none;stroke:black;stroke-width:21.51px;"/>
                                </g>
                                <g transform="matrix(0.782042,3.38964e-32,-9.24446e-33,0.80072,-4515.74,278.361)">
                                    <path d="M6229,861L6229,1316.66L6329.18,1425L6805.79,1425" style="fill:none;stroke:black;stroke-width:18.07px;"/>
                                </g>
                            </g>
                            <g id="Shape4" serif:id="Shape" transform="matrix(-1,0,0,1,1692.51,1.59162e-12)">
                                <g transform="matrix(0.665105,0,0,-0.665105,-3728.81,1574.36)">
                                    <path d="M6356,233C6262.11,302.545 6190.75,385.813 6141,482" style="fill:none;stroke:black;stroke-width:21.51px;"/>
                                </g>
                                <g transform="matrix(0.665105,0,0,-0.665105,-3728.81,1574.36)">
                                    <path d="M6223.48,357.5C6205.48,535.769 6205.48,669.137 6205.48,912" style="fill:none;stroke:black;stroke-width:21.51px;"/>
                                </g>
                                <g transform="matrix(0.782042,3.38964e-32,-9.24446e-33,0.80072,-4515.74,278.361)">
                                    <path d="M6229,861L6229,1316.66L6329.18,1425L6805.79,1425" style="fill:none;stroke:black;stroke-width:18.07px;"/>
                                </g>
                            </g>
                            <g id="Shape5" serif:id="Shape" transform="matrix(1,0,0,1,79.1475,3.41061e-13)">
                                <g transform="matrix(0.665105,0,0,-0.665105,-3728.81,1574.36)">
                                    <path d="M6356,233C6262.11,302.545 6190.75,385.813 6141,482" style="fill:none;stroke:black;stroke-width:21.51px;"/>
                                </g>
                                <g transform="matrix(0.665105,0,0,-0.665105,-3728.81,1574.36)">
                                    <path d="M6223.48,357.5C6205.48,535.769 6205.48,669.137 6205.48,912" style="fill:none;stroke:black;stroke-width:21.51px;"/>
                                </g>
                                <g transform="matrix(0.782042,3.38964e-32,-9.24446e-33,0.80072,-4515.74,278.361)">
                                    <path d="M6229,861L6229,1316.66L6329.18,1425L6805.79,1425" style="fill:none;stroke:black;stroke-width:18.07px;"/>
                                </g>
                            </g>
                        </g>
                    </g>
                </g>
            </g>
        </g>
    </g>
</svg>
