<?xml version="1.0" encoding="UTF-8" standalone="no"?>
<!DOCTYPE svg PUBLIC "-//W3C//DTD SVG 1.1//EN" "http://www.w3.org/Graphics/SVG/1.1/DTD/svg11.dtd">
<svg width="100%" height="100%" viewBox="0 0 1772 1772" version="1.1" xmlns="http://www.w3.org/2000/svg" xmlns:xlink="http://www.w3.org/1999/xlink" xml:space="preserve" xmlns:serif="http://www.serif.com/" style="fill-rule:evenodd;clip-rule:evenodd;stroke-linecap:round;stroke-linejoin:round;stroke-miterlimit:1.5;">
    <g transform="matrix(1,0,0,1,-2007.38,-5.68434e-14)">
        <g id="Traits-1" serif:id="Traits 1" transform="matrix(1,0,0,1,2007.38,5.68434e-14)">
            <rect x="0" y="0" width="1771.65" height="1771.65" style="fill:none;"/>
            <g id="Shield" transform="matrix(1.50352,0,0,1.50352,-446.033,-543.081)">
                <g transform="matrix(-1,0,0,1,1771.65,-3.41061e-13)">
                    <g transform="matrix(0.666595,0,0,0.666595,-1042.77,351.104)">
                        <path d="M2563.5,1516.06C2503.01,1492.01 2495.07,1434.11 2535,1328C2506.12,1397.39 2489.79,1454.68 2437.61,1472.77" style="fill:none;stroke:black;stroke-width:20.83px;"/>
                    </g>
                    <g transform="matrix(0.74603,0,0,0.818842,-1162.77,290.732)">
                        <path d="M2746,182L2309.04,182C2301.94,215.534 2273.3,242.385 2208.83,258.12L2210.55,420.819C2254.13,503.711 2229.73,556.984 2168.47,592.398C2208.83,749 2208.68,1104.55 2195.8,1316L2471.69,1316" style="fill:none;stroke:black;stroke-width:20.83px;"/>
                    </g>
                    <g transform="matrix(-0.7091,0,0,0.679622,2951.79,329.564)">
                        <path d="M2913.5,1193C3090.94,1193 3235,1296.18 3235,1423.27C3235,1550.36 3090.94,1653.54 2913.5,1653.54" style="fill:none;stroke:black;stroke-width:20.83px;"/>
                    </g>
                    <g transform="matrix(0.666595,0,0,0.666595,-1042.77,351.104)">
                        <path d="M2284.95,1169C2229.86,1214.21 2226.36,1315.53 2304.29,1402.61C2373.14,1479.53 2510.66,1539.07 2510.66,1574C2510.66,1595.6 2478.76,1592.78 2435,1574" style="fill:none;stroke:black;stroke-width:20.83px;"/>
                    </g>
                    <g transform="matrix(0.666595,0,0,0.666595,-1042.77,351.104)">
                        <path d="M2414.61,1492.01C2335.81,1459.95 2267.85,1428.9 2244.56,1434.84C2215.15,1442.35 2223.07,1474.13 2246.86,1479" style="fill:none;stroke:black;stroke-width:20.83px;"/>
                    </g>
                    <g transform="matrix(0.666595,0,0,0.666595,-1042.77,351.104)">
                        <path d="M2289.86,227L2265.6,507.773C2317.39,650.439 2310.1,973.252 2284.86,1350.83" style="fill:none;stroke:black;stroke-width:20.83px;"/>
                    </g>
                    <g transform="matrix(0.666595,0,0,0.666595,-1042.77,351.104)">
                        <path d="M2667,1665C2609.89,1633.72 2510.66,1653.54 2460,1621C2540.82,1653.54 2619.53,1631.5 2666,1596.16" style="fill:none;stroke:black;stroke-width:20.83px;"/>
                    </g>
                </g>
                <g>
                    <g transform="matrix(0.666595,0,0,0.666595,-1042.77,351.104)">
                        <path d="M2563.5,1516.06C2503.01,1492.01 2495.07,1434.11 2535,1328C2506.12,1397.39 2489.79,1454.68 2437.61,1472.77" style="fill:none;stroke:black;stroke-width:20.83px;"/>
                    </g>
                    <g transform="matrix(0.74603,0,0,0.818842,-1162.77,290.732)">
                        <path d="M2746,182L2309.04,182C2301.94,215.534 2273.3,242.385 2208.83,258.12L2210.55,420.819C2254.13,503.711 2229.73,556.984 2168.47,592.398C2208.83,749 2208.68,1104.55 2195.8,1316L2471.69,1316" style="fill:none;stroke:black;stroke-width:20.83px;"/>
                    </g>
                    <g transform="matrix(-0.7091,0,0,0.679622,2951.79,329.564)">
                        <path d="M2913.5,1193C3090.94,1193 3235,1296.18 3235,1423.27C3235,1550.36 3090.94,1653.54 2913.5,1653.54" style="fill:none;stroke:black;stroke-width:20.83px;"/>
                    </g>
                    <g transform="matrix(0.666595,0,0,0.666595,-1042.77,351.104)">
                        <path d="M2284.95,1169C2229.86,1214.21 2226.36,1315.53 2304.29,1402.61C2373.14,1479.53 2510.66,1539.07 2510.66,1574C2510.66,1595.6 2478.76,1592.78 2435,1574" style="fill:none;stroke:black;stroke-width:20.83px;"/>
                    </g>
                    <g transform="matrix(0.666595,0,0,0.666595,-1042.77,351.104)">
                        <path d="M2414.61,1492.01C2335.81,1459.95 2267.85,1428.9 2244.56,1434.84C2215.15,1442.35 2223.07,1474.13 2246.86,1479" style="fill:none;stroke:black;stroke-width:20.83px;"/>
                    </g>
                    <g transform="matrix(0.666595,0,0,0.666595,-1042.77,351.104)">
                        <path d="M2289.86,227L2265.6,507.773C2317.39,650.439 2310.1,973.252 2284.86,1350.83" style="fill:none;stroke:black;stroke-width:20.83px;"/>
                    </g>
                    <g transform="matrix(0.666595,0,0,0.666595,-1042.77,351.104)">
                        <path d="M2667,1665C2609.89,1633.72 2510.66,1653.54 2460,1621C2540.82,1653.54 2619.53,1631.5 2666,1596.16" style="fill:none;stroke:black;stroke-width:20.83px;"/>
                    </g>
                </g>
            </g>
        </g>
    </g>
</svg>
